<svg style="position: absolute; width: 0; height: 0; overflow: hidden;" aria-hidden="true" version="1.1" xmlns="http://www.w3.org/2000/svg" xmlns:xlink="http://www.w3.org/1999/xlink">
    <style>
        .default-palette, .palette0 {color: currentColor;
            --color0: #fbb03b;
            --color1: #420061;
            --color2: #440063;
            --color3: #fff;
            --color4: #fffbf0;
            --color5: #fdf2c7;
            --color6: #fbe387;
            --color7: #fbe07a;
            --color8: #90d856;
            --color9: #59d335;
            --color10: #29cf18;
            --color11: #0bcd07;
            --color12: #0c0;
            --color13: #366e0d;
            --color14: #33740c;
            --color15: #17a306;
            --color16: #06c102;
        }
    </style>
    <defs>
        <symbol id="check" viewBox="0 0 24 24" fill="none">
            <path fill="url(#paint0_linear)" d="M4.9199 12.257c-0.6343 0-1.2686 0.2629-1.72 0.7772-0.4057 0.4571-0.6057 1.0457-0.5657 1.6571 0.04 0.6114 0.3143 1.1657 0.7714 1.5714l4.1086 3.6057c0.4171 0.3658 0.9543 0.5715 1.5085 0.5715 0.0629 0 0.1258 0 0.1886-57e-4 0.6172-0.0515 1.1943-0.3543 1.5829-0.8343l10.0628-12.32c0.8-0.9772 0.6515-2.4229-0.3257-3.2229-0.4743-0.3829-1.0686-0.5657-1.6743-0.5029-0.6057 0.0629-1.1543 0.3543-1.5428 0.8286l-8.5657 10.48-2.3258-2.04c-0.4285-0.3771-0.9714-0.5657-1.5028-0.5657z" />
            <path fill="url(#paint1_linear)" d="M9.0228 20.0284c-0.4572 0-0.8971-0.1657-1.24-0.4686l-4.1086-3.6057c-0.7771-0.6857-0.8571-1.8743-0.1714-2.6514 0.6857-0.7772 1.8743-0.8572 2.6514-0.1714l2.6457 2.32 8.8286-10.8115c0.6571-0.8057 1.84-0.92 2.6457-0.2685 0.8057 0.6571 0.92 1.84 0.2686 2.6457l-10.0686 12.32c-0.32 0.3943-0.7943 0.64-1.2971 0.6857-0.0514 0-0.1029 57e-4-0.1543 57e-4z" />
            <path opacity="0.75" fill="url(#paint2_radial)" d="M9.0228 20.0284c-0.4572 0-0.8971-0.1657-1.24-0.4686l-4.1086-3.6057c-0.7771-0.6857-0.8571-1.8743-0.1714-2.6514 0.6857-0.7772 1.8743-0.8572 2.6514-0.1714l2.6457 2.32 8.8286-10.8115c0.6571-0.8057 1.84-0.92 2.6457-0.2685 0.8057 0.6571 0.92 1.84 0.2686 2.6457l-10.0686 12.32c-0.32 0.3943-0.7943 0.64-1.2971 0.6857-0.0514 0-0.1029 57e-4-0.1543 57e-4z" />
            <path opacity="0.5" fill="url(#paint3_radial)" d="M9.0228 20.0284c-0.4572 0-0.8971-0.1657-1.24-0.4686l-4.1086-3.6057c-0.7771-0.6857-0.8571-1.8743-0.1714-2.6514 0.6857-0.7772 1.8743-0.8572 2.6514-0.1714l2.6457 2.32 8.8286-10.8115c0.6571-0.8057 1.84-0.92 2.6457-0.2685 0.8057 0.6571 0.92 1.84 0.2686 2.6457l-10.0686 12.32c-0.32 0.3943-0.7943 0.64-1.2971 0.6857-0.0514 0-0.1029 57e-4-0.1543 57e-4z" />
            <defs>
                <linearGradient id="paint0_linear" gradientUnits="userSpaceOnUse" x1="15.825" x2="9.82533" y1="-13.9667" y2="23.9171" />
                <linearGradient id="paint1_linear" gradientUnits="userSpaceOnUse" x1="15.2501" x2="7.43443" y1="0.625426" y2="23.6215" />
                <radialGradient id="paint2_radial" gradientTransform="matrix(-3.680704, 7.503637, -3.845442, -1.886276, 15.452, 8.95803)" gradientUnits="userSpaceOnUse" />
                <radialGradient id="paint3_radial" gradientTransform="matrix(-8.906004, 4.093292, -1.732703, -3.769939, 11.6442, 17.0245)" gradientUnits="userSpaceOnUse" />
            </defs>
        </symbol>
        <symbol id="star" viewBox="0 0 501.986 501.986" version="1.1" xmlns:xlink="http://www.w3.org/1999/xlink">
            <g>
                <g>
                    <path fill="var(--color0, #fbb03b)" d="M287.442 42.472l42.984 87.096c5.921 11.997 17.365 20.312 30.604 22.235l96.116 13.966c33.339 4.844 46.651 45.815 22.527 69.331l-69.55 67.795c-9.58 9.338-13.951 22.792-11.69 35.978l16.419 95.728c5.695 33.204-29.157 58.526-58.976 42.849l-85.969-45.196c-11.841-6.225-25.988-6.225-37.829 0l-85.969 45.196c-29.819 15.677-64.671-9.644-58.976-42.849l16.419-95.728c2.261-13.185-2.11-26.639-11.69-35.978L22.312 235.1c-24.124-23.515-10.812-64.486 22.527-69.33l96.116-13.966c13.239-1.924 24.684-10.239 30.604-22.235l42.984-87.096c14.911-30.211 57.99-30.211 72.899-1e-3z" />
                    <path d="M374.839 492.172c-8.05 0-16.139-1.941-23.616-5.872l-85.969-45.196c-8.931-4.694-19.593-4.693-28.521 0L150.764 486.3c-17.189 9.037-37.628 7.56-53.338-3.855-15.711-11.415-23.431-30.395-20.149-49.535l16.419-95.728c1.705-9.944-1.59-20.084-8.813-27.126l-69.551-67.794C1.426 228.707-3.484 208.813 2.517 190.343c6-18.469 21.667-31.677 40.885-34.469l96.115-13.967c9.984-1.451 18.61-7.718 23.075-16.765l42.984-87.096c8.595-17.414 25.998-28.232 45.417-28.232s36.822 10.818 45.417 28.232v0l42.984 87.096c4.465 9.047 13.091 15.314 23.075 16.765l96.115 13.967c19.218 2.792 34.885 16 40.885 34.469 6.001 18.469 1.091 38.363-12.815 51.918l-69.55 67.794c-7.225 7.042-10.52 17.183-8.814 27.127l16.419 95.727c3.282 19.14-4.438 38.121-20.148 49.535-8.876 6.451-19.266 9.728-29.722 9.728zM250.993 417.582c8.096 0 16.188 1.939 23.567 5.819l85.969 45.196c10.559 5.551 22.625 4.679 32.275-2.333s14.208-18.217 12.191-29.974l-16.419-95.728c-2.817-16.434 2.628-33.192 14.567-44.829l69.549-67.794c8.543-8.327 11.442-20.071 7.756-31.417-3.687-11.345-12.935-19.142-24.739-20.857l-96.117-13.967c-16.499-2.397-30.754-12.755-38.134-27.706l-42.984-87.096c-5.279-10.697-15.553-17.083-27.481-17.083-11.929 0-22.202 6.386-27.481 17.083l-42.984 87.096c-7.38 14.951-21.635 25.308-38.134 27.706l-96.116 13.967c-11.806 1.715-21.054 9.513-24.74 20.857-3.687 11.345-0.787 23.09 7.756 31.416l69.55 67.794c11.938 11.637 17.384 28.396 14.566 44.829l-16.42 95.73c-2.017 11.757 2.541 22.962 12.191 29.974 9.651 7.012 21.717 7.884 32.275 2.333l85.969-45.196c7.379-3.88 15.474-5.82 23.568-5.82z" />
                </g>
                <g>
                    <path d="M231.978 103.014c-1.486 0-2.994-0.333-4.418-1.035-4.952-2.444-6.985-8.44-4.542-13.393l8.559-17.342c2.444-4.953 8.438-6.988 13.394-4.542 4.952 2.444 6.985 8.44 4.542 13.393l-8.559 17.342c-1.743 3.529-5.29 5.577-8.976 5.577z" />
                </g>
                <g>
                    <path d="M145.668 198.093c-4.887 0-9.16-3.585-9.884-8.563-0.794-5.465 2.993-10.54 8.458-11.334 23.306-3.387 43.441-18.017 53.863-39.134l9.612-19.476c2.443-4.953 8.44-6.986 13.394-4.542 4.952 2.444 6.985 8.44 4.542 13.393l-9.612 19.476c-13.337 27.021-39.102 45.741-68.922 50.075-0.487 0.071-0.972 0.105-1.451 0.105z" />
                </g>
            </g>
        </symbol>
      <symbol id="close" viewBox="0 0 24 24">
    <line x1="6" y1="6" x2="18" y2="18"
          stroke="currentColor"
          stroke-width="2"
          stroke-linecap="round"/>
          
    <line x1="18" y1="6" x2="6" y2="18"
          stroke="currentColor"
          stroke-width="2"
          stroke-linecap="round"/>
</symbol>
    </defs>
</svg>